<mxfile host="65bd71144e">
    <diagram name="Page-1" id="zUWWPDWqFBsLRtbe18wj">
        <mxGraphModel dx="2511" dy="2378" grid="1" gridSize="10" guides="1" tooltips="1" connect="1" arrows="1" fold="1" page="1" pageScale="1" pageWidth="827" pageHeight="1169" math="0" shadow="0">
            <root>
                <mxCell id="0"/>
                <mxCell id="1" parent="0"/>
                <mxCell id="-dgW3Ea9hQg-mB9d39dc-14" style="edgeStyle=orthogonalEdgeStyle;rounded=0;orthogonalLoop=1;jettySize=auto;html=1;entryX=0;entryY=0.5;entryDx=0;entryDy=0;" parent="1" source="SXBCvxiAlohXXn7sMr1k-10" target="SXBCvxiAlohXXn7sMr1k-12" edge="1">
                    <mxGeometry relative="1" as="geometry"/>
                </mxCell>
                <mxCell id="-dgW3Ea9hQg-mB9d39dc-19" style="edgeStyle=orthogonalEdgeStyle;rounded=0;orthogonalLoop=1;jettySize=auto;html=1;entryX=0;entryY=0.5;entryDx=0;entryDy=0;" parent="1" source="SXBCvxiAlohXXn7sMr1k-10" target="SXBCvxiAlohXXn7sMr1k-37" edge="1">
                    <mxGeometry relative="1" as="geometry"/>
                </mxCell>
                <mxCell id="SXBCvxiAlohXXn7sMr1k-10" value="Użytkownik" style="shape=umlActor;verticalLabelPosition=bottom;verticalAlign=top;html=1;outlineConnect=0;" parent="1" vertex="1">
                    <mxGeometry x="-670" y="985.5" width="30" height="66.25" as="geometry"/>
                </mxCell>
                <mxCell id="SXBCvxiAlohXXn7sMr1k-11" value="system" style="shape=umlFrame;whiteSpace=wrap;html=1;pointerEvents=0;" parent="1" vertex="1">
                    <mxGeometry x="-590" y="-350" width="550" height="1470" as="geometry"/>
                </mxCell>
                <mxCell id="SXBCvxiAlohXXn7sMr1k-20" value="Przeglądanie kursów" style="ellipse;whiteSpace=wrap;html=1;" parent="1" vertex="1">
                    <mxGeometry x="-383.75" y="360" width="110" height="45" as="geometry"/>
                </mxCell>
                <mxCell id="SXBCvxiAlohXXn7sMr1k-21" value="Wyświetlanie opinii" style="ellipse;whiteSpace=wrap;html=1;" parent="1" vertex="1">
                    <mxGeometry x="-383.75" y="730" width="110" height="50" as="geometry"/>
                </mxCell>
                <mxCell id="SXBCvxiAlohXXn7sMr1k-22" value="Polubienie kusu" style="ellipse;whiteSpace=wrap;html=1;" parent="1" vertex="1">
                    <mxGeometry x="-383.75" y="540" width="110" height="50" as="geometry"/>
                </mxCell>
                <mxCell id="SXBCvxiAlohXXn7sMr1k-25" value="&amp;lt;&amp;lt;extend&amp;gt;&amp;gt;" style="html=1;verticalAlign=bottom;labelBackgroundColor=none;endArrow=open;endFill=0;dashed=1;rounded=0;exitX=0;exitY=0.5;exitDx=0;exitDy=0;entryX=1;entryY=0.5;entryDx=0;entryDy=0;" parent="1" source="-dgW3Ea9hQg-mB9d39dc-4" target="SXBCvxiAlohXXn7sMr1k-20" edge="1">
                    <mxGeometry width="160" relative="1" as="geometry">
                        <mxPoint x="-196.80999999999995" y="165.68000000000006" as="sourcePoint"/>
                        <mxPoint x="205" y="660" as="targetPoint"/>
                    </mxGeometry>
                </mxCell>
                <mxCell id="SXBCvxiAlohXXn7sMr1k-27" value="Dodanie opinii" style="ellipse;whiteSpace=wrap;html=1;" parent="1" vertex="1">
                    <mxGeometry x="-497.5" y="113.75" width="110" height="50" as="geometry"/>
                </mxCell>
                <mxCell id="SXBCvxiAlohXXn7sMr1k-28" value="Utworzenie komentarza" style="ellipse;whiteSpace=wrap;html=1;" parent="1" vertex="1">
                    <mxGeometry x="-382.5" y="669.38" width="110" height="50" as="geometry"/>
                </mxCell>
                <mxCell id="SXBCvxiAlohXXn7sMr1k-31" value="Dodanie kursu do profilu" style="ellipse;whiteSpace=wrap;html=1;" parent="1" vertex="1">
                    <mxGeometry x="-382.5" y="475" width="110" height="50" as="geometry"/>
                </mxCell>
                <mxCell id="SXBCvxiAlohXXn7sMr1k-33" value="&amp;lt;&amp;lt;extend&amp;gt;&amp;gt;" style="html=1;verticalAlign=bottom;labelBackgroundColor=none;endArrow=open;endFill=0;dashed=1;rounded=0;exitX=0;exitY=0.5;exitDx=0;exitDy=0;entryX=1;entryY=0.5;entryDx=0;entryDy=0;" parent="1" source="SXBCvxiAlohXXn7sMr1k-34" target="SXBCvxiAlohXXn7sMr1k-12" edge="1">
                    <mxGeometry width="160" relative="1" as="geometry">
                        <mxPoint x="-100" y="290" as="sourcePoint"/>
                        <mxPoint x="10" y="480" as="targetPoint"/>
                    </mxGeometry>
                </mxCell>
                <mxCell id="SXBCvxiAlohXXn7sMr1k-34" value="Przypomnij hasło" style="ellipse;whiteSpace=wrap;html=1;" parent="1" vertex="1">
                    <mxGeometry x="-200" y="1030.5" width="115" height="50" as="geometry"/>
                </mxCell>
                <mxCell id="SXBCvxiAlohXXn7sMr1k-36" value="Usuwanie komentarzy" style="ellipse;whiteSpace=wrap;html=1;" parent="1" vertex="1">
                    <mxGeometry x="-383.75" y="-340" width="110" height="50" as="geometry"/>
                </mxCell>
                <mxCell id="SXBCvxiAlohXXn7sMr1k-37" value="Rejestracja" style="ellipse;whiteSpace=wrap;html=1;" parent="1" vertex="1">
                    <mxGeometry x="-385" y="960" width="110" height="50" as="geometry"/>
                </mxCell>
                <mxCell id="SXBCvxiAlohXXn7sMr1k-39" value="Usunięcie komentarza" style="ellipse;whiteSpace=wrap;html=1;" parent="1" vertex="1">
                    <mxGeometry x="-172.5" y="669.38" width="110" height="50" as="geometry"/>
                </mxCell>
                <mxCell id="SXBCvxiAlohXXn7sMr1k-43" value="Weryfikacja Mail'owa" style="ellipse;whiteSpace=wrap;html=1;" parent="1" vertex="1">
                    <mxGeometry x="-205" y="960" width="125" height="50" as="geometry"/>
                </mxCell>
                <mxCell id="SXBCvxiAlohXXn7sMr1k-46" value="&amp;lt;&amp;lt;include&amp;gt;&amp;gt;" style="html=1;verticalAlign=bottom;labelBackgroundColor=none;endArrow=open;endFill=0;dashed=1;rounded=0;entryX=0;entryY=0.5;entryDx=0;entryDy=0;exitX=1;exitY=0.5;exitDx=0;exitDy=0;" parent="1" source="SXBCvxiAlohXXn7sMr1k-37" target="SXBCvxiAlohXXn7sMr1k-43" edge="1">
                    <mxGeometry width="160" relative="1" as="geometry">
                        <mxPoint x="-140" y="942" as="sourcePoint"/>
                        <mxPoint x="-125" y="600" as="targetPoint"/>
                    </mxGeometry>
                </mxCell>
                <mxCell id="SXBCvxiAlohXXn7sMr1k-48" value="Zarządzenie kursami" style="ellipse;whiteSpace=wrap;html=1;" parent="1" vertex="1">
                    <mxGeometry x="-383.75" y="-140" width="107.5" height="56.25" as="geometry"/>
                </mxCell>
                <mxCell id="-dgW3Ea9hQg-mB9d39dc-21" style="edgeStyle=orthogonalEdgeStyle;rounded=0;orthogonalLoop=1;jettySize=auto;html=1;entryX=1;entryY=0;entryDx=0;entryDy=0;" parent="1" source="SXBCvxiAlohXXn7sMr1k-50" target="SXBCvxiAlohXXn7sMr1k-48" edge="1">
                    <mxGeometry relative="1" as="geometry"/>
                </mxCell>
                <mxCell id="SXBCvxiAlohXXn7sMr1k-50" value="Usuwanie kursów" style="ellipse;whiteSpace=wrap;html=1;" parent="1" vertex="1">
                    <mxGeometry x="-227.5" y="-210" width="110" height="65" as="geometry"/>
                </mxCell>
                <mxCell id="-dgW3Ea9hQg-mB9d39dc-22" style="edgeStyle=orthogonalEdgeStyle;rounded=0;orthogonalLoop=1;jettySize=auto;html=1;entryX=1;entryY=0.5;entryDx=0;entryDy=0;" parent="1" source="SXBCvxiAlohXXn7sMr1k-52" target="SXBCvxiAlohXXn7sMr1k-48" edge="1">
                    <mxGeometry relative="1" as="geometry"/>
                </mxCell>
                <mxCell id="SXBCvxiAlohXXn7sMr1k-52" value="Dodawanie kursów" style="ellipse;whiteSpace=wrap;html=1;" parent="1" vertex="1">
                    <mxGeometry x="-225" y="-138.75" width="105" height="55" as="geometry"/>
                </mxCell>
                <mxCell id="-dgW3Ea9hQg-mB9d39dc-23" style="edgeStyle=orthogonalEdgeStyle;rounded=0;orthogonalLoop=1;jettySize=auto;html=1;entryX=1;entryY=1;entryDx=0;entryDy=0;" parent="1" source="SXBCvxiAlohXXn7sMr1k-54" target="SXBCvxiAlohXXn7sMr1k-48" edge="1">
                    <mxGeometry relative="1" as="geometry"/>
                </mxCell>
                <mxCell id="SXBCvxiAlohXXn7sMr1k-54" value="Aktualizacja danych kursu" style="ellipse;whiteSpace=wrap;html=1;" parent="1" vertex="1">
                    <mxGeometry x="-227.5" y="-68.75" width="110" height="65" as="geometry"/>
                </mxCell>
                <mxCell id="-dgW3Ea9hQg-mB9d39dc-5" style="edgeStyle=orthogonalEdgeStyle;rounded=0;orthogonalLoop=1;jettySize=auto;html=1;entryX=0;entryY=0.5;entryDx=0;entryDy=0;" parent="1" source="-dgW3Ea9hQg-mB9d39dc-2" target="SXBCvxiAlohXXn7sMr1k-21" edge="1">
                    <mxGeometry relative="1" as="geometry"/>
                </mxCell>
                <mxCell id="-dgW3Ea9hQg-mB9d39dc-7" style="edgeStyle=orthogonalEdgeStyle;rounded=0;orthogonalLoop=1;jettySize=auto;html=1;entryX=0;entryY=0.5;entryDx=0;entryDy=0;" parent="1" source="-dgW3Ea9hQg-mB9d39dc-2" target="SXBCvxiAlohXXn7sMr1k-22" edge="1">
                    <mxGeometry relative="1" as="geometry"/>
                </mxCell>
                <mxCell id="-dgW3Ea9hQg-mB9d39dc-9" style="edgeStyle=orthogonalEdgeStyle;rounded=0;orthogonalLoop=1;jettySize=auto;html=1;entryX=0;entryY=0.5;entryDx=0;entryDy=0;" parent="1" source="-dgW3Ea9hQg-mB9d39dc-2" target="SXBCvxiAlohXXn7sMr1k-28" edge="1">
                    <mxGeometry relative="1" as="geometry"/>
                </mxCell>
                <mxCell id="-dgW3Ea9hQg-mB9d39dc-11" style="edgeStyle=orthogonalEdgeStyle;rounded=0;orthogonalLoop=1;jettySize=auto;html=1;entryX=0;entryY=0.5;entryDx=0;entryDy=0;" parent="1" source="-dgW3Ea9hQg-mB9d39dc-2" target="SXBCvxiAlohXXn7sMr1k-31" edge="1">
                    <mxGeometry relative="1" as="geometry"/>
                </mxCell>
                <mxCell id="-dgW3Ea9hQg-mB9d39dc-12" style="edgeStyle=orthogonalEdgeStyle;rounded=0;orthogonalLoop=1;jettySize=auto;html=1;entryX=0;entryY=0.5;entryDx=0;entryDy=0;" parent="1" source="-dgW3Ea9hQg-mB9d39dc-2" target="SXBCvxiAlohXXn7sMr1k-20" edge="1">
                    <mxGeometry relative="1" as="geometry"/>
                </mxCell>
                <mxCell id="-dgW3Ea9hQg-mB9d39dc-13" style="edgeStyle=orthogonalEdgeStyle;rounded=0;orthogonalLoop=1;jettySize=auto;html=1;" parent="1" source="-dgW3Ea9hQg-mB9d39dc-2" target="SXBCvxiAlohXXn7sMr1k-10" edge="1">
                    <mxGeometry relative="1" as="geometry"/>
                </mxCell>
                <mxCell id="-dgW3Ea9hQg-mB9d39dc-26" style="edgeStyle=orthogonalEdgeStyle;rounded=0;orthogonalLoop=1;jettySize=auto;html=1;entryX=0;entryY=0.5;entryDx=0;entryDy=0;" parent="1" source="-dgW3Ea9hQg-mB9d39dc-2" target="-dgW3Ea9hQg-mB9d39dc-25" edge="1">
                    <mxGeometry relative="1" as="geometry"/>
                </mxCell>
                <mxCell id="-dgW3Ea9hQg-mB9d39dc-2" value="Zalogowany użytkownik" style="shape=umlActor;verticalLabelPosition=bottom;verticalAlign=top;html=1;outlineConnect=0;" parent="1" vertex="1">
                    <mxGeometry x="-670" y="561.25" width="30" height="66.25" as="geometry"/>
                </mxCell>
                <mxCell id="-dgW3Ea9hQg-mB9d39dc-4" value="Przeglądanie pojedyńczego kursu" style="ellipse;whiteSpace=wrap;html=1;" parent="1" vertex="1">
                    <mxGeometry x="-187.5" y="360" width="140" height="45" as="geometry"/>
                </mxCell>
                <mxCell id="-dgW3Ea9hQg-mB9d39dc-20" style="edgeStyle=orthogonalEdgeStyle;rounded=0;orthogonalLoop=1;jettySize=auto;html=1;entryX=0;entryY=0.5;entryDx=0;entryDy=0;" parent="1" source="-dgW3Ea9hQg-mB9d39dc-16" target="SXBCvxiAlohXXn7sMr1k-48" edge="1">
                    <mxGeometry relative="1" as="geometry"/>
                </mxCell>
                <mxCell id="-dgW3Ea9hQg-mB9d39dc-24" style="edgeStyle=orthogonalEdgeStyle;rounded=0;orthogonalLoop=1;jettySize=auto;html=1;entryX=0;entryY=0.5;entryDx=0;entryDy=0;" parent="1" source="-dgW3Ea9hQg-mB9d39dc-16" target="SXBCvxiAlohXXn7sMr1k-36" edge="1">
                    <mxGeometry relative="1" as="geometry"/>
                </mxCell>
                <mxCell id="4" style="edgeStyle=none;html=1;entryX=0.5;entryY=0;entryDx=0;entryDy=0;entryPerimeter=0;" edge="1" parent="1" source="-dgW3Ea9hQg-mB9d39dc-16" target="2">
                    <mxGeometry relative="1" as="geometry"/>
                </mxCell>
                <mxCell id="-dgW3Ea9hQg-mB9d39dc-16" value="Admin" style="shape=umlActor;verticalLabelPosition=bottom;verticalAlign=top;html=1;outlineConnect=0;" parent="1" vertex="1">
                    <mxGeometry x="-670" y="-145" width="30" height="66.25" as="geometry"/>
                </mxCell>
                <mxCell id="SXBCvxiAlohXXn7sMr1k-12" value="Logowanie" style="ellipse;whiteSpace=wrap;html=1;" parent="1" vertex="1">
                    <mxGeometry x="-385" y="1030.5" width="110" height="50" as="geometry"/>
                </mxCell>
                <mxCell id="-dgW3Ea9hQg-mB9d39dc-25" value="Wylogowanie" style="ellipse;whiteSpace=wrap;html=1;" parent="1" vertex="1">
                    <mxGeometry x="-383.75" y="810" width="110" height="50" as="geometry"/>
                </mxCell>
                <mxCell id="5" style="edgeStyle=none;html=1;entryX=0.5;entryY=0;entryDx=0;entryDy=0;entryPerimeter=0;" edge="1" parent="1" source="2" target="-dgW3Ea9hQg-mB9d39dc-2">
                    <mxGeometry relative="1" as="geometry"/>
                </mxCell>
                <mxCell id="7" style="edgeStyle=none;html=1;exitX=0.5;exitY=0.5;exitDx=0;exitDy=0;exitPerimeter=0;entryX=0;entryY=0.5;entryDx=0;entryDy=0;" edge="1" parent="1" source="2" target="SXBCvxiAlohXXn7sMr1k-27">
                    <mxGeometry relative="1" as="geometry"/>
                </mxCell>
                <mxCell id="2" value="Zweryfikowany student" style="shape=umlActor;verticalLabelPosition=bottom;verticalAlign=top;html=1;outlineConnect=0;" vertex="1" parent="1">
                    <mxGeometry x="-670" y="105.63" width="30" height="66.25" as="geometry"/>
                </mxCell>
                <mxCell id="8" value="Wyświetlanie kursów" style="ellipse;whiteSpace=wrap;html=1;" vertex="1" parent="1">
                    <mxGeometry x="-383.75" y="420" width="110" height="45" as="geometry"/>
                </mxCell>
                <mxCell id="11" style="edgeStyle=orthogonalEdgeStyle;rounded=0;orthogonalLoop=1;jettySize=auto;html=1;entryX=0;entryY=0.5;entryDx=0;entryDy=0;exitX=0.5;exitY=0.5;exitDx=0;exitDy=0;exitPerimeter=0;" edge="1" parent="1" source="-dgW3Ea9hQg-mB9d39dc-2" target="8">
                    <mxGeometry relative="1" as="geometry">
                        <mxPoint x="-630" y="414.47058823529414" as="sourcePoint"/>
                        <mxPoint x="-376.25" y="405" as="targetPoint"/>
                    </mxGeometry>
                </mxCell>
                <mxCell id="13" value="&amp;lt;&amp;lt;extend&amp;gt;&amp;gt;" style="html=1;verticalAlign=bottom;labelBackgroundColor=none;endArrow=open;endFill=0;dashed=1;rounded=0;exitX=0;exitY=0.5;exitDx=0;exitDy=0;entryX=1;entryY=0.5;entryDx=0;entryDy=0;" edge="1" parent="1" source="SXBCvxiAlohXXn7sMr1k-39" target="SXBCvxiAlohXXn7sMr1k-28">
                    <mxGeometry width="160" relative="1" as="geometry">
                        <mxPoint x="-154.99999999999636" y="478.82" as="sourcePoint"/>
                        <mxPoint x="-230" y="478.82" as="targetPoint"/>
                    </mxGeometry>
                </mxCell>
                <mxCell id="14" value="Wyświetlanie komentarzy" style="ellipse;whiteSpace=wrap;html=1;" vertex="1" parent="1">
                    <mxGeometry x="-383.75" y="611.25" width="110" height="50" as="geometry"/>
                </mxCell>
                <mxCell id="15" style="edgeStyle=orthogonalEdgeStyle;rounded=0;orthogonalLoop=1;jettySize=auto;html=1;entryX=0;entryY=0.5;entryDx=0;entryDy=0;exitX=0.5;exitY=0.5;exitDx=0;exitDy=0;exitPerimeter=0;" edge="1" parent="1" source="-dgW3Ea9hQg-mB9d39dc-2" target="14">
                    <mxGeometry relative="1" as="geometry">
                        <mxPoint x="-645" y="414.375" as="sourcePoint"/>
                        <mxPoint x="-376.24999999999295" y="162.5" as="targetPoint"/>
                    </mxGeometry>
                </mxCell>
                <mxCell id="18" value="Zgłaszanie komentarzy" style="ellipse;whiteSpace=wrap;html=1;" vertex="1" parent="1">
                    <mxGeometry x="-172.5" y="611.25" width="110" height="50" as="geometry"/>
                </mxCell>
                <mxCell id="19" value="&amp;lt;&amp;lt;extend&amp;gt;&amp;gt;" style="html=1;verticalAlign=bottom;labelBackgroundColor=none;endArrow=open;endFill=0;dashed=1;rounded=0;exitX=0;exitY=0.5;exitDx=0;exitDy=0;entryX=1;entryY=0.5;entryDx=0;entryDy=0;" edge="1" parent="1" source="18" target="14">
                    <mxGeometry width="160" relative="1" as="geometry">
                        <mxPoint x="-157.49999999999636" y="383.19" as="sourcePoint"/>
                        <mxPoint x="-277.5" y="308.7500000000001" as="targetPoint"/>
                    </mxGeometry>
                </mxCell>
                <mxCell id="20" value="Zgłaszanie opinii" style="ellipse;whiteSpace=wrap;html=1;" vertex="1" parent="1">
                    <mxGeometry x="-172.5" y="730" width="110" height="50" as="geometry"/>
                </mxCell>
                <mxCell id="21" value="&amp;lt;&amp;lt;extend&amp;gt;&amp;gt;" style="html=1;verticalAlign=bottom;labelBackgroundColor=none;endArrow=open;endFill=0;dashed=1;rounded=0;exitX=0;exitY=0.5;exitDx=0;exitDy=0;entryX=1;entryY=0.5;entryDx=0;entryDy=0;" edge="1" parent="1" source="20" target="SXBCvxiAlohXXn7sMr1k-21">
                    <mxGeometry width="160" relative="1" as="geometry">
                        <mxPoint x="-169.99999999999636" y="539.44" as="sourcePoint"/>
                        <mxPoint x="-288.75" y="502.5" as="targetPoint"/>
                    </mxGeometry>
                </mxCell>
                <mxCell id="22" value="Zmiana hasła" style="ellipse;whiteSpace=wrap;html=1;" vertex="1" parent="1">
                    <mxGeometry x="-383.75" y="870" width="110" height="50" as="geometry"/>
                </mxCell>
                <mxCell id="23" style="edgeStyle=orthogonalEdgeStyle;rounded=0;orthogonalLoop=1;jettySize=auto;html=1;entryX=0;entryY=0.5;entryDx=0;entryDy=0;exitX=0.5;exitY=0.5;exitDx=0;exitDy=0;exitPerimeter=0;" edge="1" parent="1" source="-dgW3Ea9hQg-mB9d39dc-2" target="22">
                    <mxGeometry relative="1" as="geometry">
                        <mxPoint x="-645" y="414.375" as="sourcePoint"/>
                        <mxPoint x="-376.25" y="356.25" as="targetPoint"/>
                    </mxGeometry>
                </mxCell>
                <mxCell id="24" value="Wyświetlenie własnego profilu" style="ellipse;whiteSpace=wrap;html=1;" vertex="1" parent="1">
                    <mxGeometry x="-382.5" y="940" width="110" height="50" as="geometry"/>
                </mxCell>
                <mxCell id="25" style="edgeStyle=orthogonalEdgeStyle;rounded=0;orthogonalLoop=1;jettySize=auto;html=1;entryX=0;entryY=0.5;entryDx=0;entryDy=0;exitX=0.5;exitY=0.5;exitDx=0;exitDy=0;exitPerimeter=0;" edge="1" parent="1" source="-dgW3Ea9hQg-mB9d39dc-2" target="24">
                    <mxGeometry relative="1" as="geometry">
                        <mxPoint x="-645" y="414.375" as="sourcePoint"/>
                        <mxPoint x="-373.75" y="715" as="targetPoint"/>
                    </mxGeometry>
                </mxCell>
                <mxCell id="26" value="Wyświetlanie wystawionych opinii" style="ellipse;whiteSpace=wrap;html=1;" vertex="1" parent="1">
                    <mxGeometry x="-192.5" y="50.00000000000006" width="110" height="50" as="geometry"/>
                </mxCell>
                <mxCell id="27" value="&amp;lt;&amp;lt;extend&amp;gt;&amp;gt;" style="html=1;verticalAlign=bottom;labelBackgroundColor=none;endArrow=open;endFill=0;dashed=1;rounded=0;exitX=0;exitY=0.5;exitDx=0;exitDy=0;entryX=1;entryY=0.5;entryDx=0;entryDy=0;" edge="1" parent="1" source="26" target="SXBCvxiAlohXXn7sMr1k-27">
                    <mxGeometry width="160" relative="1" as="geometry">
                        <mxPoint x="-200.61999999999637" y="24.76000000000011" as="sourcePoint"/>
                        <mxPoint x="-251.87" y="-1.0658141036401503e-13" as="targetPoint"/>
                    </mxGeometry>
                </mxCell>
                <mxCell id="28" value="Filtracja opinii" style="ellipse;whiteSpace=wrap;html=1;" vertex="1" parent="1">
                    <mxGeometry x="-162.5" y="800" width="110" height="50" as="geometry"/>
                </mxCell>
                <mxCell id="29" value="&amp;lt;&amp;lt;extend&amp;gt;&amp;gt;" style="html=1;verticalAlign=bottom;labelBackgroundColor=none;endArrow=open;endFill=0;dashed=1;rounded=0;exitX=0;exitY=0.5;exitDx=0;exitDy=0;entryX=1;entryY=0.5;entryDx=0;entryDy=0;" edge="1" parent="1" source="28" target="SXBCvxiAlohXXn7sMr1k-21">
                    <mxGeometry width="160" relative="1" as="geometry">
                        <mxPoint x="-159.99999999999636" y="609.44" as="sourcePoint"/>
                        <mxPoint x="-263.75" y="635" as="targetPoint"/>
                    </mxGeometry>
                </mxCell>
                <mxCell id="30" value="Archiwizacja kursów" style="ellipse;whiteSpace=wrap;html=1;" vertex="1" parent="1">
                    <mxGeometry x="-230" y="-300" width="110" height="65" as="geometry"/>
                </mxCell>
                <mxCell id="32" style="edgeStyle=orthogonalEdgeStyle;rounded=0;orthogonalLoop=1;jettySize=auto;html=1;entryX=0.5;entryY=0;entryDx=0;entryDy=0;exitX=0;exitY=0.5;exitDx=0;exitDy=0;" edge="1" parent="1" source="30" target="SXBCvxiAlohXXn7sMr1k-48">
                    <mxGeometry relative="1" as="geometry">
                        <mxPoint x="-217.49997747793395" y="-167.52941176470586" as="sourcePoint"/>
                        <mxPoint x="-281.54941329408575" y="-121.52752209413438" as="targetPoint"/>
                    </mxGeometry>
                </mxCell>
                <mxCell id="33" value="Edycja opinii" style="ellipse;whiteSpace=wrap;html=1;" vertex="1" parent="1">
                    <mxGeometry x="-190" y="121.88000000000005" width="110" height="50" as="geometry"/>
                </mxCell>
                <mxCell id="34" value="&amp;lt;&amp;lt;extend&amp;gt;&amp;gt;" style="html=1;verticalAlign=bottom;labelBackgroundColor=none;endArrow=open;endFill=0;dashed=1;rounded=0;exitX=0;exitY=0.5;exitDx=0;exitDy=0;entryX=1;entryY=0.5;entryDx=0;entryDy=0;" edge="1" parent="1" source="33" target="SXBCvxiAlohXXn7sMr1k-27">
                    <mxGeometry width="160" relative="1" as="geometry">
                        <mxPoint x="-198.11999999999637" y="96.64000000000011" as="sourcePoint"/>
                        <mxPoint x="-273.75" y="104.99999999999989" as="targetPoint"/>
                    </mxGeometry>
                </mxCell>
                <mxCell id="35" value="Usunięcie opinii" style="ellipse;whiteSpace=wrap;html=1;" vertex="1" parent="1">
                    <mxGeometry x="-187.5" y="181.88" width="107.5" height="50" as="geometry"/>
                </mxCell>
                <mxCell id="36" value="&amp;lt;&amp;lt;extend&amp;gt;&amp;gt;" style="html=1;verticalAlign=bottom;labelBackgroundColor=none;endArrow=open;endFill=0;dashed=1;rounded=0;exitX=0;exitY=0.5;exitDx=0;exitDy=0;entryX=1;entryY=0.5;entryDx=0;entryDy=0;" edge="1" parent="1" source="35" target="SXBCvxiAlohXXn7sMr1k-27">
                    <mxGeometry width="160" relative="1" as="geometry">
                        <mxPoint x="-325.61999999999637" y="103.92000000000012" as="sourcePoint"/>
                        <mxPoint x="-419.9435803152328" y="58.11597420391561" as="targetPoint"/>
                    </mxGeometry>
                </mxCell>
            </root>
        </mxGraphModel>
    </diagram>
</mxfile>